# xmcd
#
# Track frame offsets: 
#        150
#        16845
#        38657
#        60515
#        75077
#        99937
#        115920
#        147572
#        169515
#        184320
#        211872
#        231327
#
# Disc length: 3182 seconds
#
# Revision: 1
# Processed by: cddbd v1.5.2PL0 Copyright (c) Steve Scherf et al.
# Submitted via: ExactAudioCopy v1.0b3
#
DISCID=8f0c6c0c
DTITLE=Fred Hersch - Plays Monk
DYEAR=1998
DGENRE=Jazz
TTITLE0='Round Midnight
TTITLE1=In Walked Bud
TTITLE2=Crepuscule with Nellie - Reflections
TTITLE3=Think of One
TTITLE4=Ask Me Now
TTITLE5=Evidence
TTITLE6=Five Views of Misterioso
TTITLE7=Let's Cool One
TTITLE8=Bemsha Swing
TTITLE9=Light Blue - Pannonica
TTITLE10=I Mean You
TTITLE11='Round Midnight reprise
EXTD=YEAR: 1998
EXTT0=
EXTT1=
EXTT2=
EXTT3=
EXTT4=
EXTT5=
EXTT6=
EXTT7=
EXTT8=
EXTT9=
EXTT10=
EXTT11=
PLAYORDER=
